<!DOCTYPE svg PUBLIC "-//W3C//DTD SVG 1.1//EN" "http://www.w3.org/Graphics/SVG/1.1/DTD/svg11.dtd">
<!-- Uploaded to: SVG Repo, www.svgrepo.com, Transformed by: SVG Repo Mixer Tools -->
<svg fill="#457382" height="800px" width="800px" version="1.1" id="Layer_1" xmlns="http://www.w3.org/2000/svg" xmlns:xlink="http://www.w3.org/1999/xlink" viewBox="-51.2 -51.2 614.40 614.40" xml:space="preserve" stroke="#457382">
<g id="SVGRepo_bgCarrier" stroke-width="0">
<path transform="translate(-51.2, -51.2), scale(38.4)" fill="#c893bf" d="M9.166.33a2.25 2.25 0 00-2.332 0l-5.25 3.182A2.25 2.25 0 00.5 5.436v5.128a2.25 2.25 0 001.084 1.924l5.25 3.182a2.25 2.25 0 002.332 0l5.25-3.182a2.25 2.25 0 001.084-1.924V5.436a2.25 2.25 0 00-1.084-1.924L9.166.33z" strokewidth="0"/>
</g>
<g id="SVGRepo_tracerCarrier" stroke-linecap="round" stroke-linejoin="round"/>
<g id="SVGRepo_iconCarrier"> <g transform="translate(1 1)"> <g> <g> <path d="M306.2,101.4h-8.533c0-1.156,0-2.313,0-3.413v-5.12c0-23.893-18.773-42.667-42.667-42.667s-42.667,18.773-42.667,42.667 v8.533H203.8c-14.507,0-25.6,11.093-25.6,25.6v51.2c0,14.507,11.093,25.6,25.6,25.6h102.4c14.507,0,25.6-11.093,25.6-25.6V127 C331.8,112.493,320.707,101.4,306.2,101.4z M229.4,92.867c0-14.507,11.093-25.6,25.6-25.6c14.507,0,25.6,11.093,25.6,25.6v5.12 c0,0.853,0,2.56,0,3.413h-51.2V92.867z M314.733,178.2c0,5.12-3.413,8.533-8.533,8.533H203.8c-5.12,0-8.533-3.413-8.533-8.533 V127c0-5.12,3.413-8.533,8.533-8.533h17.067h68.267H306.2c5.12,0,8.533,3.413,8.533,8.533V178.2z"/> <path d="M391.533,135.533C391.533,60.44,330.093-1,255-1S118.467,60.44,118.467,135.533c0,60.669,40.106,112.417,95.113,130.063 L229.4,486.253C230.253,500.76,241.347,511,255,511c13.653,0,24.747-10.24,25.6-24.747l16.674-220.936 C351.841,247.412,391.533,195.887,391.533,135.533z M263.533,484.547c0,5.12-3.413,9.387-8.533,9.387 c-5.12,0-8.533-5.12-8.533-9.387l-15.36-214.187c9.862,1.644,20.426,2.225,30.792,1.532c5.753-0.29,11.414-0.942,16.962-1.93 L263.533,484.547z M255,255c-65.707,0-119.467-53.76-119.467-119.467S189.293,16.067,255,16.067s119.467,53.76,119.467,119.467 S320.707,255,255,255z"/> <path d="M263.533,135.533h-17.067c-5.12,0-8.533,3.413-8.533,8.533c0,5.12,3.413,8.533,8.533,8.533v8.533 c0,5.12,3.413,8.533,8.533,8.533c5.12,0,8.533-3.413,8.533-8.533V152.6c5.12,0,8.533-3.413,8.533-8.533 C272.067,138.947,268.653,135.533,263.533,135.533z"/> </g> </g> </g> </g>
</svg>